<?xml version="1.0" encoding="utf-8"?>
<!-- Generator: Adobe Illustrator 28.1.0, SVG Export Plug-In . SVG Version: 6.00 Build 0)  -->
<svg version="1.1" id="Layer_1" xmlns="http://www.w3.org/2000/svg" xmlns:xlink="http://www.w3.org/1999/xlink" x="0px" y="0px"
	 viewBox="0 0 80 80" style="enable-background:new 0 0 80 80;" xml:space="preserve">
<style type="text/css">
	.st0{fill:none;stroke:#9E6D44;stroke-width:2;stroke-miterlimit:10;}
	.st1{fill:#FFFFFF;stroke:#9E6D44;stroke-miterlimit:10;}
	.st2{fill:none;stroke:#9E6D44;stroke-width:1.8;stroke-linecap:round;stroke-linejoin:round;stroke-miterlimit:10;}
	.st3{fill:#9E6D44;}
</style>
<g id="Layer_1_00000181064261197083404110000002121659501914924942_">
	<g>
		<g>
			<g>
				<path class="st0" d="M72.6,71.5l-6.4-16.7c-0.1-0.4-0.4-0.9-0.8-1.2L55.5,43c-0.5,3.6-1.2,6.7-2,9.3l5.8,6l6.2,16
					c0.5,1.6,2,2.6,3.6,2.6c0.4,0,0.9-0.1,1.3-0.3C72.4,75.8,73.4,73.5,72.6,71.5z"/>
				<path class="st0" d="M54.4,27.3c-0.3-0.7-0.8-3-1.1-3.8c-1.6-4.6-5.4-6-8.1-5.4c-0.4,0.1-0.7,0.3-0.9,0.4l-10.2,5.4
					c-1.1,0.5-1.6,1.7-1.2,3l3.4,10.7c0.3,1.1,1.3,1.7,2.4,1.7c0.3,0,0.5,0,0.7-0.1c1.3-0.4,2-1.7,1.6-3.1l-2.7-8.7l4-2.1
					c0,0.1,0,0.3,0.1,0.4c0.8,4.4,2.4,10.6,1.6,16c-0.3,3.5,0.5,4.4,2.3,4.6c-0.9,4.2-2,7.3-2.8,9.1l-12.9-2.1
					c-2.1-0.4-4.2,1.1-4.4,3.2c-0.4,2.1,1.1,4.2,3.2,4.4l15.7,2.7c0.3,0,0.4,0,0.7,0c1.3,0,2.7-0.7,3.4-1.9
					c0.1-0.3,4.3-7.3,5.9-20.5c0-0.1,0-0.3,0.1-0.3c0.3-1.9,0.4-4.3,0.4-5.9"/>
				<path class="st0" d="M49.7,22.7c-0.9-0.9-2.6-0.9-3.5,0s-0.9,2.6,0,3.5l8.3,8.1c0.5,0.4,1.1,0.7,1.7,0.7c0.4,0,0.7-0.1,1.1-0.3
					l10.6-5.1c1.2-0.5,1.7-2.1,1.2-3.4C68.6,25,67,24.5,65.7,25l-9,4.3L49.7,22.7z"/>
				<circle class="st0" cx="46.6" cy="9.4" r="7"/>
			</g>
			<path class="st1" d="M45.2,12c0,0,3.2,0.7,5.2-0.5C50.6,11.4,48.6,15.3,45.2,12z"/>
			<line class="st2" x1="7.1" y1="31.3" x2="25.9" y2="31.1"/>
			<line class="st2" x1="14.6" y1="35.1" x2="27.8" y2="35.1"/>
		</g>
		<g>
			<path class="st3" d="M29.1,14.1c-4-0.5-6.6,1.1-6.2-1.3C23.2,10.4,27.9,11.6,29.1,14.1z"/>
			<path class="st3" d="M32.3,13.3c-1.9-2.6-4.2-3.2-2.7-4.3C31.3,8,33.2,11.3,32.3,13.3z"/>
		</g>
	</g>
</g>
<g id="Layer_2_00000042004718507165808230000016599380165230041021_">
</g>
</svg>
